<svg width="15" height="12" viewBox="0 0 15 12" fill="none" xmlns="http://www.w3.org/2000/svg">
<path fillRule="evenodd" clipRule="evenodd" d="M2.25686 0.230362C2.54384 -0.0681159 3.0188 -0.0778804 3.3174 0.208878C3.61576 0.495868 3.62561 0.970858 3.33889 1.26942L2.5049 2.13564L9.75393 2.17958C12.4013 2.1823 14.4989 4.40788 14.499 7.08876C14.4989 9.77125 12.3986 11.9989 9.74905 11.9989H3.34865C2.93479 11.9986 2.59882 11.6628 2.59865 11.2489C2.59884 10.835 2.9348 10.4992 3.34865 10.4989H9.74905C11.5152 10.4989 12.9989 8.99891 12.999 7.08876C12.9989 5.17858 11.5152 3.6786 9.74905 3.6786H9.74514L2.51662 3.63564L3.33889 4.49013C3.62569 4.78873 3.6159 5.26368 3.3174 5.55067C3.01884 5.83737 2.54384 5.82851 2.25686 5.53017L0.209006 3.39931C-0.0696752 3.10908 -0.0696623 2.65048 0.209006 2.36024L2.25686 0.230362Z" fill="currentColor"/>
</svg>
