<?xml version="1.0" encoding="utf-8"?>
<!-- Generator: Adobe Illustrator 17.0.0, SVG Export Plug-In . SVG Version: 6.00 Build 0)  -->
<!DOCTYPE svg PUBLIC "-//W3C//DTD SVG 1.1//EN" "http://www.w3.org/Graphics/SVG/1.1/DTD/svg11.dtd">
<svg version="1.1" id="Forma_1_1_" xmlns="http://www.w3.org/2000/svg" xmlns:xlink="http://www.w3.org/1999/xlink" x="0px" y="0px"
	 width="78px" height="78px" viewBox="0 0 78 78" enable-background="new 0 0 78 78" xml:space="preserve">
<g id="Forma_1">
	<g>
		<path fill-rule="evenodd" clip-rule="evenodd" d="M7.617,9.14c-0.841,0-1.523,0.683-1.523,1.523c0,0.841,0.683,1.523,1.523,1.523
			c0.841,0,1.523-0.682,1.523-1.523C9.141,9.823,8.458,9.14,7.617,9.14z M76.477,23.156c0.841,0,1.523-0.683,1.523-1.524
			c0-0.842-0.682-1.524-1.523-1.524h-8.531v-6.093h8.531c0.841,0,1.523-0.682,1.523-1.523c0-0.842-0.682-1.524-1.523-1.524H21.328
			v-0.305c0-5.88-4.784-10.664-10.664-10.664C4.784-0.001,0,4.783,0,10.663v56.672c0,5.88,4.784,10.664,10.664,10.664h65.813
			c0.841,0,1.523-0.682,1.523-1.523c0-0.842-0.682-1.524-1.523-1.524h-8.531v-6.094h8.531c0.841,0,1.523-0.682,1.523-1.523
			c0-0.842-0.682-1.524-1.523-1.524h-8.531v-6.093h8.531c0.841,0,1.523-0.682,1.523-1.523c0-0.842-0.682-1.524-1.523-1.524h-8.531
			v-6.094h8.531c0.841,0,1.523-0.682,1.523-1.524s-0.682-1.524-1.523-1.524h-8.531v-6.093h8.531c0.841,0,1.523-0.682,1.523-1.523
			c0-0.842-0.682-1.524-1.523-1.524h-8.531v-6.093h8.531c0.841,0,1.523-0.682,1.523-1.524c0-0.842-0.682-1.524-1.523-1.524h-8.531
			v-6.093H76.477z M21.328,33.563l16.988,10.921l-16.988,10.92V33.563z M21.328,59.026l20.628-13.261
			c0.436-0.28,0.7-0.763,0.7-1.281c0-0.518-0.264-1.001-0.7-1.282L21.328,29.941v-6.785h19.174l8.248,8.248v26.16l-8.248,8.248
			H21.328V59.026z M3.047,10.663c0-4.2,3.417-7.617,7.617-7.617c4.2,0,7.617,3.417,7.617,7.617v49.219
			c-1.937-1.979-4.635-3.211-7.617-3.211c-2.982,0-5.68,1.232-7.617,3.211V10.663z M10.664,74.952c-4.2,0-7.617-3.417-7.617-7.617
			c0-4.2,3.417-7.617,7.617-7.617c4.2,0,7.617,3.417,7.617,7.617C18.281,71.535,14.864,74.952,10.664,74.952z M58.805,74.952H18.117
			c1.636-1.601,2.759-3.722,3.1-6.094h19.915c0.404,0,0.792-0.161,1.077-0.446l9.141-9.141c0.286-0.286,0.446-0.673,0.446-1.077
			V30.773c0-0.404-0.161-0.791-0.446-1.077l-9.141-9.141c-0.286-0.285-0.673-0.447-1.077-0.447H21.328v-6.093h37.477V74.952z
			 M64.898,74.952h-3.047V14.015h3.047V74.952z M10.664,62.765c-2.52,0-4.57,2.05-4.57,4.57c0,2.52,2.05,4.57,4.57,4.57
			c2.52,0,4.57-2.051,4.57-4.57C15.234,64.815,13.184,62.765,10.664,62.765z M10.664,68.859c-0.84,0-1.523-0.683-1.523-1.523
			c0-0.84,0.683-1.524,1.523-1.524c0.84,0,1.523,0.684,1.523,1.524C12.187,68.175,11.504,68.859,10.664,68.859z M7.617,15.234
			c-0.841,0-1.523,0.682-1.523,1.523v35.343c0,0.841,0.682,1.523,1.523,1.523c0.841,0,1.523-0.682,1.523-1.523V16.757
			C9.141,15.916,8.458,15.234,7.617,15.234z"/>
	</g>
</g>
</svg>
