<svg id="Logo" xmlns="http://www.w3.org/2000/svg" width="189" height="81" viewBox="0 0 189 81">
  <metadata><?xpacket begin="﻿" id="W5M0MpCehiHzreSzNTczkc9d"?>
<x:xmpmeta xmlns:x="adobe:ns:meta/" x:xmptk="Adobe XMP Core 5.6-c138 79.159824, 2016/09/14-01:09:01        ">
   <rdf:RDF xmlns:rdf="http://www.w3.org/1999/02/22-rdf-syntax-ns#">
      <rdf:Description rdf:about=""/>
   </rdf:RDF>
</x:xmpmeta>
                                                                                                    
                                                                                                    
                                                                                                    
                                                                                                    
                                                                                                    
                                                                                                    
                                                                                                    
                                                                                                    
                                                                                                    
                                                                                                    
                                                                                                    
                                                                                                    
                                                                                                    
                                                                                                    
                                                                                                    
                                                                                                    
                                                                                                    
                                                                                                    
                                                                                                    
                                                                                                    
                           
<?xpacket end="w"?></metadata>
<defs>
    <style>
      .cls-1 {
        fill: #fcb700;
      }

      .cls-1, .cls-2, .cls-3, .cls-4 {
        fill-rule: evenodd;
      }

      .cls-2 {
        fill: #6e6e6e;
      }

      .cls-3 {
        fill: #fff;
      }

      .cls-4 {
        fill: #3e4140;
      }
    </style>
  </defs>
  <g>
    <path id="Clerina" class="cls-1" d="M86.87,39.747a10,10,0,0,0,6.351-2.43,7.927,7.927,0,0,0,2.227-3.15l-0.692-.3a7.594,7.594,0,0,1-2.589,2.22,7.021,7.021,0,0,1-3.281.78,3.121,3.121,0,0,1-2.829-1.2,6.386,6.386,0,0,1-.783-3.48,24.449,24.449,0,0,1,.888-6.36A18.606,18.606,0,0,1,88.5,20.352q1.445-2.175,3.04-2.175a1.748,1.748,0,0,1,1.4.51,1.961,1.961,0,0,1,.436,1.32,3.6,3.6,0,0,1-.421,1.68,2.361,2.361,0,0,1-.963,1.08,2.09,2.09,0,0,0,1.716.78,1.809,1.809,0,0,0,1.6-.735,3.5,3.5,0,0,0,.512-2.025,3.476,3.476,0,0,0-1.385-3.03,6.128,6.128,0,0,0-3.642-.99,7.766,7.766,0,0,0-6,2.595,15.663,15.663,0,0,0-3.431,6.225,24.083,24.083,0,0,0-1.069,6.78q0,3.96,1.6,5.67t5,1.71h0Zm11.528-.3a6.246,6.246,0,0,0,3.461-1.155,8.316,8.316,0,0,0,2.86-4.395h-1.264a4.206,4.206,0,0,1-1.084,1.905,2.3,2.3,0,0,1-1.625.735,1.413,1.413,0,0,1-.948-0.255,1.1,1.1,0,0,1-.286-0.855,3.7,3.7,0,0,1,.12-0.96l3.461-16.2-4.454.6L95.418,33.9a10.385,10.385,0,0,0-.241,1.95,3.7,3.7,0,0,0,.888,2.7,3.131,3.131,0,0,0,2.333.9h0Zm10.113,0q4.937,0,8.278-5.55h-1.024a13.484,13.484,0,0,1-2.543,2.28,5.013,5.013,0,0,1-2.784.75,2.234,2.234,0,0,1-1.656-.525,2.9,2.9,0,0,1-.511-1.995c0-.2.019-0.6,0.06-1.2a8.279,8.279,0,0,0,3.4-.975,7.109,7.109,0,0,0,2.559-2.265,5.363,5.363,0,0,0,.963-3.09q0-2.88-3.311-2.88a6.361,6.361,0,0,0-4.666,1.815,10.585,10.585,0,0,0-2.649,4.305,14.829,14.829,0,0,0-.812,4.56,4.736,4.736,0,0,0,1.234,3.615,4.867,4.867,0,0,0,3.461,1.155h0Zm0.061-7.68a14.345,14.345,0,0,1,1.49-4.29q1.038-1.89,2.122-1.89,0.752,0,.752,1.23a4.749,4.749,0,0,1-.617,2.34,5.506,5.506,0,0,1-1.625,1.83,3.978,3.978,0,0,1-2.122.78h0Zm6.8,7.5h4.334l2.408-11.4a7.327,7.327,0,0,1,1.129-.885,2.088,2.088,0,0,1,1.068-.255,0.336,0.336,0,0,1,.331.18,2.69,2.69,0,0,1,.181.57,2.4,2.4,0,0,0,.346.915,1.035,1.035,0,0,0,.888.315,2,2,0,0,0,1.595-.66,2.266,2.266,0,0,0,.572-1.53,2.386,2.386,0,0,0-.556-1.59,1.888,1.888,0,0,0-1.521-.66,3.507,3.507,0,0,0-1.79.48,12.007,12.007,0,0,0-1.852,1.38l0.392-1.86h-4.335Zm18.24-16.62a2.349,2.349,0,0,0,1.7-.69,2.26,2.26,0,0,0,.707-1.68,2.41,2.41,0,0,0-2.408-2.4,2.276,2.276,0,0,0-1.686.705,2.335,2.335,0,0,0-.692,1.7,2.359,2.359,0,0,0,2.378,2.37h0Zm-2.047,16.8a6.249,6.249,0,0,0,3.462-1.155,8.316,8.316,0,0,0,2.859-4.395h-1.264A4.2,4.2,0,0,1,135.54,35.8a2.293,2.293,0,0,1-1.625.735,1.411,1.411,0,0,1-.948-0.255,1.1,1.1,0,0,1-.286-0.855,3.714,3.714,0,0,1,.12-0.96l2.167-10.2h-4.334l-2.047,9.63a10.407,10.407,0,0,0-.24,1.95,3.7,3.7,0,0,0,.887,2.7,3.132,3.132,0,0,0,2.333.9h0Zm16.675,0a4.9,4.9,0,0,0,3.025-1.125,9.327,9.327,0,0,0,2.574-4.425h-1.264a7.556,7.556,0,0,1-1.084,1.995,1.791,1.791,0,0,1-1.445.645,1.147,1.147,0,0,1-.933-0.33,1.431,1.431,0,0,1-.271-0.93,6.85,6.85,0,0,1,.2-1.395q0.195-.885.437-1.815,0.39-1.53.6-2.595a10.077,10.077,0,0,0,.21-1.935,3.321,3.321,0,0,0-.9-2.55,3.438,3.438,0,0,0-2.438-.84,4.6,4.6,0,0,0-3.522,1.68l0.332-1.56h-4.335l-3.19,15h4.334l2.047-9.63a5.873,5.873,0,0,1,.963-2,1.741,1.741,0,0,1,1.385-.765q1.083,0,1.083,1.53a8.514,8.514,0,0,1-.211,1.65q-0.21,1.02-.451,2.07c-0.04.14-.116,0.46-0.226,0.96s-0.216,1.015-.316,1.545a7.77,7.77,0,0,0-.15,1.425,3.524,3.524,0,0,0,.858,2.415,3.4,3.4,0,0,0,2.693.975h0Zm8.7,0a5.311,5.311,0,0,0,4.485-2.79,3.371,3.371,0,0,0,.948,2.055,2.774,2.774,0,0,0,2,.735,2.216,2.216,0,0,0,1.745-.675,8.258,8.258,0,0,0,1.265-2.355,1.508,1.508,0,0,1-.663.12,1.414,1.414,0,0,1-.948-0.255,1.1,1.1,0,0,1-.286-0.855,3.671,3.671,0,0,1,.121-0.96l2.167-10.2h-4.334l-0.332,1.59v-0.21a1.293,1.293,0,0,0-.6-1.11,3.232,3.232,0,0,0-1.836-.42,5.847,5.847,0,0,0-4.2,1.7,10.74,10.74,0,0,0-2.648,4.14,13.664,13.664,0,0,0-.888,4.665,5.067,5.067,0,0,0,1.144,3.66,3.833,3.833,0,0,0,2.859,1.17h0Zm1.956-2.91a1.481,1.481,0,0,1-1.068-.42,2.835,2.835,0,0,1-.437-1.92,13.261,13.261,0,0,1,.542-3.465,11.029,11.029,0,0,1,1.5-3.36,2.686,2.686,0,0,1,2.167-1.395,1.127,1.127,0,0,1,.934.375,1.22,1.22,0,0,1,.3.765L161.4,33.9a3.7,3.7,0,0,1-1.009,1.935,2.175,2.175,0,0,1-1.49.705h0Z"/>
    <path id="Wordpress_Theme" data-name="Wordpress Theme" class="cls-2" d="M83.791,59.356h1.341l1.76-5.434q0.033-.1.069-0.226t0.069-.258q0.033,0.138.069,0.258t0.069,0.226l1.744,5.434h1.341L92.731,51.4H91.567a0.519,0.519,0,0,0-.32.1,0.444,0.444,0,0,0-.171.236L89.718,56.5q-0.044.171-.085,0.369t-0.08.412a6.305,6.305,0,0,0-.21-0.781l-1.556-4.757a0.47,0.47,0,0,0-.177-0.245,0.537,0.537,0,0,0-.32-0.091H86.854a0.49,0.49,0,0,0-.317.1,0.521,0.521,0,0,0-.174.231L84.8,56.5q-0.061.176-.113,0.382t-0.1.437q-0.039-.231-0.08-0.437T84.415,56.5l-1.358-4.757a0.437,0.437,0,0,0-.174-0.245,0.55,0.55,0,0,0-.323-0.091H81.314Zm17.173-5.6a3.717,3.717,0,0,0-2.1-2.137,4.28,4.28,0,0,0-1.65-.308,4.333,4.333,0,0,0-1.653.305,3.746,3.746,0,0,0-1.28.85,3.812,3.812,0,0,0-.825,1.29,4.631,4.631,0,0,0,0,3.239,3.811,3.811,0,0,0,.825,1.29,3.746,3.746,0,0,0,1.28.85,4.62,4.62,0,0,0,3.3,0,3.724,3.724,0,0,0,1.275-.85,3.837,3.837,0,0,0,.822-1.29A4.624,4.624,0,0,0,100.964,53.76Zm-1.4,2.794a2.454,2.454,0,0,1-.5.88,2.166,2.166,0,0,1-.792.553,2.974,2.974,0,0,1-2.105,0,2.184,2.184,0,0,1-.8-0.553,2.461,2.461,0,0,1-.5-0.88,3.992,3.992,0,0,1,0-2.349,2.49,2.49,0,0,1,.5-0.883,2.17,2.17,0,0,1,.8-0.556,2.974,2.974,0,0,1,2.105,0,2.153,2.153,0,0,1,.792.556,2.483,2.483,0,0,1,.5.883A4.054,4.054,0,0,1,99.56,56.554Zm5.035-.305a0.727,0.727,0,0,1,.334.06,0.6,0.6,0,0,1,.207.2l1.678,2.547a0.619,0.619,0,0,0,.557.3h1.335l-2-2.937a1.466,1.466,0,0,0-.486-0.456,2.893,2.893,0,0,0,.748-0.352,2.3,2.3,0,0,0,.552-0.511,2.19,2.19,0,0,0,.342-0.649,2.537,2.537,0,0,0-.055-1.686,1.813,1.813,0,0,0-.547-0.723,2.666,2.666,0,0,0-.954-0.47,5.108,5.108,0,0,0-1.4-.168h-2.434v7.953h1.485V56.249H104.6Zm-0.634-3.7h0.949a1.918,1.918,0,0,1,1.222.325,1.127,1.127,0,0,1,.4.929,1.511,1.511,0,0,1-.1.556,1.161,1.161,0,0,1-.3.437,1.408,1.408,0,0,1-.513.289,2.306,2.306,0,0,1-.731.1h-0.927v-2.64Zm12.488,1.227a3.679,3.679,0,0,0-.823-1.257,3.736,3.736,0,0,0-1.274-.819,4.459,4.459,0,0,0-1.65-.294h-3.047v7.953H112.7a4.494,4.494,0,0,0,1.65-.291,3.618,3.618,0,0,0,2.1-2.079A4.563,4.563,0,0,0,116.449,53.774Zm-1.4,2.78a2.49,2.49,0,0,1-.5.88,2.163,2.163,0,0,1-.792.553,2.734,2.734,0,0,1-1.051.192h-1.551v-5.6H112.7a2.736,2.736,0,0,1,1.051.192,2.166,2.166,0,0,1,.792.553,2.491,2.491,0,0,1,.5.88A4.005,4.005,0,0,1,115.047,56.554Zm5.507,0a4.316,4.316,0,0,0,1.358-.193,2.693,2.693,0,0,0,.965-0.539,2.2,2.2,0,0,0,.58-0.828,2.833,2.833,0,0,0,.193-1.059,2.8,2.8,0,0,0-.182-1.023,2.052,2.052,0,0,0-.563-0.8,2.673,2.673,0,0,0-.966-0.523,4.572,4.572,0,0,0-1.385-.187h-2.6v7.953h1.484v-2.8h1.115Zm-1.115-4.01h1.115a2.365,2.365,0,0,1,.712.1,1.326,1.326,0,0,1,.5.278,1.133,1.133,0,0,1,.3.44,1.6,1.6,0,0,1,.1.578,1.768,1.768,0,0,1-.1.608,1.186,1.186,0,0,1-.3.462,1.321,1.321,0,0,1-.5.291,2.242,2.242,0,0,1-.712.1h-1.115V52.547Zm7.533,3.7a0.73,0.73,0,0,1,.334.06,0.6,0.6,0,0,1,.207.2l1.677,2.547a0.675,0.675,0,0,0,.229.22,0.655,0.655,0,0,0,.329.077h1.335l-2-2.937a1.473,1.473,0,0,0-.485-0.456,2.909,2.909,0,0,0,.748-0.352A2.313,2.313,0,0,0,129.9,55.1a2.19,2.19,0,0,0,.342-0.649,2.369,2.369,0,0,0,.119-0.759,2.4,2.4,0,0,0-.174-0.927,1.82,1.82,0,0,0-.546-0.723,2.671,2.671,0,0,0-.955-0.47,5.1,5.1,0,0,0-1.4-.168h-2.433v7.953h1.484V56.249h0.635Zm-0.635-3.7h0.949a1.92,1.92,0,0,1,1.223.325,1.13,1.13,0,0,1,.4.929,1.491,1.491,0,0,1-.1.556,1.158,1.158,0,0,1-.3.437,1.425,1.425,0,0,1-.513.289,2.308,2.308,0,0,1-.732.1h-0.927v-2.64Zm5.7-1.144v7.953h5.033V58.174h-3.537V55.924h2.786V54.786h-2.786V52.58h3.537V51.4h-5.033Zm10.959,0.748a2.938,2.938,0,0,0-1.015-.616,3.731,3.731,0,0,0-1.3-.22,2.988,2.988,0,0,0-1.109.192,2.514,2.514,0,0,0-.82.512,2.179,2.179,0,0,0-.681,1.578,2.349,2.349,0,0,0,.157.916,1.84,1.84,0,0,0,.416.619,2.18,2.18,0,0,0,.591.4,5.827,5.827,0,0,0,.673.264c0.228,0.073.453,0.141,0.673,0.2a3.125,3.125,0,0,1,.591.228,1.272,1.272,0,0,1,.417.333,0.8,0.8,0,0,1,.157.511,1.074,1.074,0,0,1-.348.861,1.458,1.458,0,0,1-.982.3,1.989,1.989,0,0,1-.709-0.113,2.879,2.879,0,0,1-.513-0.25q-0.219-.137-0.378-0.25a0.531,0.531,0,0,0-.3-0.113,0.36,0.36,0,0,0-.191.052,0.542,0.542,0,0,0-.146.129l-0.43.709a3.09,3.09,0,0,0,.527.429,3.671,3.671,0,0,0,.634.33,3.962,3.962,0,0,0,.709.212,3.81,3.81,0,0,0,.751.074,3.209,3.209,0,0,0,1.175-.2,2.545,2.545,0,0,0,.869-0.55,2.315,2.315,0,0,0,.541-0.819,2.739,2.739,0,0,0,.185-1.009,2.042,2.042,0,0,0-.157-0.842,1.8,1.8,0,0,0-.417-0.586,2.355,2.355,0,0,0-.59-0.4,6.647,6.647,0,0,0-.676-0.275c-0.23-.079-0.456-0.153-0.676-0.223a3.867,3.867,0,0,1-.591-0.236,1.315,1.315,0,0,1-.417-0.319,0.706,0.706,0,0,1-.157-0.468,1.044,1.044,0,0,1,.077-0.4,0.83,0.83,0,0,1,.235-0.316,1.147,1.147,0,0,1,.386-0.206,1.751,1.751,0,0,1,.538-0.074,1.858,1.858,0,0,1,.594.085,2.677,2.677,0,0,1,.438.19c0.125,0.07.234,0.133,0.326,0.19a0.482,0.482,0,0,0,.248.085,0.357,0.357,0,0,0,.191-0.05,0.406,0.406,0,0,0,.14-0.17Zm5.922,0a2.943,2.943,0,0,0-1.016-.616,3.731,3.731,0,0,0-1.3-.22,2.988,2.988,0,0,0-1.109.192,2.514,2.514,0,0,0-.82.512,2.189,2.189,0,0,0-.681,1.578,2.349,2.349,0,0,0,.157.916,1.828,1.828,0,0,0,.417.619,2.16,2.16,0,0,0,.59.4,5.827,5.827,0,0,0,.673.264q0.342,0.11.674,0.2a3.141,3.141,0,0,1,.59.228,1.272,1.272,0,0,1,.417.333,0.8,0.8,0,0,1,.157.511,1.074,1.074,0,0,1-.348.861,1.458,1.458,0,0,1-.982.3,1.989,1.989,0,0,1-.709-0.113,2.879,2.879,0,0,1-.513-0.25q-0.219-.137-0.378-0.25a0.529,0.529,0,0,0-.3-0.113,0.36,0.36,0,0,0-.191.052,0.558,0.558,0,0,0-.146.129l-0.43.709a3.09,3.09,0,0,0,.527.429,3.671,3.671,0,0,0,.634.33,3.962,3.962,0,0,0,.709.212,3.81,3.81,0,0,0,.751.074,3.209,3.209,0,0,0,1.175-.2,2.545,2.545,0,0,0,.869-0.55,2.315,2.315,0,0,0,.541-0.819,2.739,2.739,0,0,0,.185-1.009,2.026,2.026,0,0,0-.157-0.842,1.8,1.8,0,0,0-.417-0.586,2.355,2.355,0,0,0-.59-0.4,6.555,6.555,0,0,0-.676-0.275c-0.23-.079-0.456-0.153-0.676-0.223a3.867,3.867,0,0,1-.591-0.236,1.3,1.3,0,0,1-.416-0.319,0.7,0.7,0,0,1-.158-0.468,1.027,1.027,0,0,1,.078-0.4,0.817,0.817,0,0,1,.234-0.316,1.147,1.147,0,0,1,.386-0.206,1.751,1.751,0,0,1,.538-0.074,1.858,1.858,0,0,1,.594.085,2.677,2.677,0,0,1,.438.19c0.125,0.07.234,0.133,0.326,0.19a0.485,0.485,0,0,0,.248.085,0.357,0.357,0,0,0,.191-0.05,0.406,0.406,0,0,0,.14-0.17Zm2.737-.748v1.215h2.411v6.737h1.484V52.619h2.4V51.4h-6.3Zm13.972,0h-1.5v3.421h-3.741V51.4h-1.5v7.953h1.5V55.88h3.741v3.476h1.5V51.4Zm1.611,0v7.953h5.033V58.174h-3.538V55.924h2.787V54.786h-2.787V52.58h3.538V51.4h-5.033Zm10.325,4.653-2.384-4.416a0.575,0.575,0,0,0-.094-0.132,0.3,0.3,0,0,0-.108-0.071,0.464,0.464,0,0,0-.129-0.028q-0.072-.005-0.171-0.005h-1.121v7.953h1.308V54.219c0-.1,0-0.206-0.008-0.322s-0.016-.234-0.03-0.355l2.444,4.526a0.635,0.635,0,0,0,.215.239,0.561,0.561,0,0,0,.309.085h0.205a0.561,0.561,0,0,0,.309-0.085,0.635,0.635,0,0,0,.215-0.239l2.411-4.51q-0.016.176-.024,0.346t-0.009.313v5.137H182.2V51.4h-1.12q-0.1,0-.171.005a0.472,0.472,0,0,0-.13.028,0.294,0.294,0,0,0-.1.071,0.642,0.642,0,0,0-.091.132l-2.362,4.405c-0.062.117-.121,0.24-0.176,0.369s-0.109.258-.16,0.39c-0.052-.128-0.1-0.256-0.157-0.382s-0.112-.248-0.174-0.366h0Zm6.257-4.653v7.953h5.033V58.174h-3.537V55.924H188.1V54.786h-2.787V52.58h3.537V51.4h-5.033Z"/>
  </g>
  <path id="Shape_11_copy_2" data-name="Shape 11 copy 2" class="cls-1" d="M35.4,10.555A29.35,29.35,0,1,0,64.5,39.9,29.225,29.225,0,0,0,35.4,10.555Z"/>
  <path id="Shape_12_copy_2" data-name="Shape 12 copy 2" class="cls-3" d="M70.043,54.919c-6.151-3.794-13.351-6.248-18.452-11.382l-0.019.019-0.03-.03a8.006,8.006,0,0,0-11.375,0l-1.419,1.428L35.5,48.228l3.253-3.275L18.662,24.732,5.465,11.448a2.286,2.286,0,0,0-3.25,0l0,0a2.324,2.324,0,0,0,0,3.271L35.5,48.228l-1.023,1.03a8.137,8.137,0,0,0,0,11.452l0.03,0.03c5.1,5.135,7.538,12.383,11.307,18.575C53.471,74.547,65.613,62.2,70.043,54.919ZM47.475,27.378l-13.527-9.55c23.7,7.255,28.718-1.709,28.718-1.709L43.613,14.246c22.513-.7,23.058-13.191,23.058-13.191-9.355,4.6-23.781,7.044-34.3,8.29A12.185,12.185,0,0,0,21.957,24.008a18.4,18.4,0,0,0,4.9,8.98l1.244-12.5C36.95,31.412,47.475,27.378,47.475,27.378Z"/>
  <path id="Shape_13_copy_2" data-name="Shape 13 copy 2" class="cls-4" d="M34.383,49.4L1,15.71a3.5,3.5,0,0,1,0-4.918,3.43,3.43,0,0,1,4.876,0L19.109,24.146,17.5,25.774,4.258,12.417a1.159,1.159,0,0,0-1.647,0,1.184,1.184,0,0,0,0,1.664L36,47.77ZM45.536,80.991a1.127,1.127,0,0,1-.264-0.031,1.143,1.143,0,0,1-.709-0.517c-1.283-2.113-2.424-4.364-3.527-6.539-2.245-4.428-4.365-8.612-7.65-11.926a9.371,9.371,0,0,1-.03-13.171l5.713-5.765A9.162,9.162,0,0,1,51.951,42.9a1.028,1.028,0,0,1,.191.153c3.284,3.313,7.429,5.453,11.817,7.718,2.157,1.113,4.388,2.264,6.482,3.559a1.159,1.159,0,0,1,.376,1.584C66.212,63.5,53.755,76.067,46.136,80.819A1.133,1.133,0,0,1,45.536,80.991Zm0.037-38.362a6.86,6.86,0,0,0-4.89,2.04L34.97,50.433a7.044,7.044,0,0,0,0,9.886c3.568,3.6,5.871,8.143,8.1,12.536,0.907,1.787,1.839,3.626,2.843,5.372,7.1-4.784,17.677-15.455,22.339-22.534-1.731-1.015-3.556-1.957-5.329-2.873-4.281-2.209-8.706-4.493-12.217-7.964a1.159,1.159,0,0,1-.2-0.161A6.923,6.923,0,0,0,45.573,42.629ZM35,61.977l-1.613-1.628,17.143-17.3,1.613,1.628Zm30.883-.92-4.829-4.223,5.991,2.242ZM49.256,76.986L47.161,70.85l4.086,5.011ZM61.45,65.8l-3.389-5.047,5,3.419Zm-23.8-19.7L25.722,34.074A19.648,19.648,0,0,1,20.5,24.484,13.557,13.557,0,0,1,22.688,13.85a13.281,13.281,0,0,1,9.239-5.5C42.348,7.108,56.713,4.676,65.963.119a1.128,1.128,0,0,1,1.126.073A1.154,1.154,0,0,1,67.6,1.2c-0.021.462-.6,9.562-14.186,13.05l9.138,0.9a1.139,1.139,0,0,1,.9.613,1.162,1.162,0,0,1-.018,1.1c-0.2.364-4.806,8.1-23.936,3.9l8.359,5.915a1.156,1.156,0,0,1-.25,2.019c-0.113.043-11.435,4.217-20.719-7.276l1.769-1.455c5.864,7.26,12.394,7.585,15.8,7.119L32.982,18.96a1.158,1.158,0,0,1-.371-1.447,1.137,1.137,0,0,1,1.358-.6c15.96,4.9,23.113,2.245,25.92.288L43.222,15.562a1.152,1.152,0,0,1,.076-2.3c15.6-.485,20.161-6.731,21.488-10.078C55.3,7.245,42.013,9.466,32.194,10.632a11,11,0,0,0-7.651,4.559,11.227,11.227,0,0,0-1.819,8.8,17.339,17.339,0,0,0,4.611,8.455L39.26,44.477Z"/>
</svg>
